<?xml version="1.0"?>
<svg width="652" height="652" xmlns="http://www.w3.org/2000/svg">
 <metadata id="metadata8">image/svg+xml</metadata>
 <defs>
  <clipPath clipPathUnits="userSpaceOnUse" id="clipPath16">
   <path d="m-61.5,810.75l612,0l0,-792l-612,0l0,792z" id="path18"/>
  </clipPath>
 </defs>
 <g>
  <title>background</title>
  <rect fill="none" id="canvas_background" height="654" width="654" y="-1" x="-1"/>
 </g>
 <g>
  <title>Layer 1</title>
  <rect fill=" none" height="656" width="816" y="1" x="-48" id="svgEditorBackground"/>
  <g id="g10" transform="matrix(1.3333333,0,0,-1.3333333,0,1056) ">
   <g id="g12">
    <g id="g14" clip-path="url(#clipPath16)">
     <g id="g20">
      <path fill="#337abe" fill-rule="evenodd" d="m437.959991,515.072815l-23.213013,-19.767029c-9.307983,-7.927979 -23.281982,-6.806976 -31.210999,2.502014l-8.803986,10.33905c-7.927002,9.30896 -6.807007,23.282959 2.501984,31.211975l23.211029,19.766968c9.309998,7.927002 23.283997,6.807007 31.210999,-2.501953l8.806,-10.340027c7.927979,-9.309021 6.807983,-23.282959 -2.502014,-31.210999m-57.152008,35.560974c-9.309998,-7.927979 -23.284973,-6.806946 -31.211975,2.502014l-10.10202,11.862c-7.927002,9.309021 -6.807007,23.283997 2.502014,31.212036l49.320984,42.000977c9.309998,7.927979 23.285004,6.807007 31.213013,-2.502014l10.100983,-11.862976c7.928009,-9.307983 6.808014,-23.28302 -2.501984,-31.210022l-49.321014,-42.002014zm-69.687988,55.54303l-10.101013,11.862c-7.927002,9.309021 -6.807983,23.283997 2.502014,31.211975l49.320984,42c9.309021,7.92804 23.28302,6.808044 31.212006,-2.500977l10.100983,-11.863037c7.928009,-9.30896 6.808014,-23.282959 -2.501984,-31.210938l-49.320984,-42.001038c-9.310028,-7.927002 -23.28302,-6.807983 -31.212006,2.502014m136.791992,-159.686005c49.276001,88.94101 30.815002,203.167999 -49.63501,271.55899c-80.472992,68.411011 -196.227966,68.219971 -276.077972,5.210999c-55.528015,26.492981 -98.210022,33.520996 -114.212006,14.697021c-17.157013,-20.182007 -0.037018,-65.853027 40.824005,-121.442993c2.867981,9.268982 6.379974,18.395996 10.530975,27.316956c-24.798981,36.112 -34.632996,63.993042 -24.103973,76.379028c9.98999,11.752014 36.698975,7.654968 73.254974,-8.734009c-6.108002,-5.703003 -11.961975,-11.802002 -17.505981,-18.322998c-13.027008,-15.323975 -23.553009,-31.930969 -31.64502,-49.322021c30.388,-44.25 83.249023,-100.862 148.703979,-156.505005c2.80603,-2.385986 5.610016,-4.738983 8.411011,-7.078979c5.988007,5.138977 11.420013,10.777954 14.024017,18.166016c6.557983,18.616943 -5.720001,33.888 -16.802002,47.501953c-12.927002,15.884033 -24.725006,32.65802 -29.988998,52.680054c0,0 -1.667007,6.337952 -4.852005,9.537964c-3.186005,3.200989 -22.062012,23.841003 -30.700012,27.575012c-8.638,3.734009 -17.190979,6.411011 -31.829987,5.401978c0,0 -27.610016,1.488037 -3.826996,20.973022c0,0 30.660004,28.731995 65.050995,7.044006c0,0 19.523987,-13.31604 50.208984,-43.996033c0,0 7.705017,-14.095947 23.88501,-18.992981c0,0 74.917999,-11.843018 90.302002,-107.609985c0,0 8.466003,-48.391998 -20.576996,-96.01001c20.035004,-12.875 38.928009,-23.776001 56.088013,-32.381989c16.686005,11.056976 32.122009,24.606995 45.734985,40.621002c6.115021,7.192993 11.682007,14.668976 16.705017,22.375977c26.061981,-37.319 36.60202,-66.200989 25.832001,-78.872009c-11.312988,-13.305969 -44.056,-6.298981 -88.272003,15.875031c-7.497009,-4.969025 -15.248016,-9.429993 -23.200989,-13.384033c61.608978,-31.518982 109.584991,-41.13797 126.773956,-20.916962c16.034058,18.859985 2.138,59.97998 -33.099976,110.654968m-194.865997,-112.492004c34.800018,-0.620972 69.595001,7.045013 101.192017,22.753998c-15.524017,7.942017 -31.917023,17.277008 -48.899017,27.874023l-52.292969,-50.628021l-0.000031,0zm-138.563995,53.076019c14.912018,13.820007 29.800018,27.670013 44.765015,41.428986c12.677979,11.653015 25.348999,23.266998 37.916992,35.025024c-2.921997,2.432983 -5.847,4.885986 -8.768997,7.371002c-58.297012,49.556976 -106.650009,100.808014 -139.584,145.615021c-24.84201,-80.276001 -1.787994,-171.115021 65.67099,-229.440033" id="path22"/>
     </g>
     <g id="g24"/>
    </g>
   </g>
  </g>
 </g>
</svg>