<svg xmlns:dc="http://purl.org/dc/elements/1.1/" xmlns:cc="http://creativecommons.org/ns#" xmlns:rdf="http://www.w3.org/1999/02/22-rdf-syntax-ns#" xmlns:svg="http://www.w3.org/2000/svg" xmlns="http://www.w3.org/2000/svg" viewBox="0 0 816 1056" height="100%" width="100%" xml:space="preserve" version="1.1" id="svg2" xmlns:xlink="http://www.w3.org/1999/xlink"><rect id="svgEditorBackground" x="0" y="0" width="816" height="1056" style="fill: none; stroke: none;"/><metadata id="metadata8"><rdf:RDF><cc:Work rdf:about=""><dc:format>image/svg+xml</dc:format><dc:type rdf:resource="http://purl.org/dc/dcmitype/StillImage"/></cc:Work></rdf:RDF></metadata><defs id="defs6"><clipPath id="clipPath16" clipPathUnits="userSpaceOnUse"><path id="path18" d="M 0,792 612,792 612,0 0,0 0,792 Z"/></clipPath></defs><g transform="matrix(1.3333333,0,0,-1.3333333,0,1056)" id="g10"><g id="g12"><g clip-path="url(#clipPath16)" id="g14"><g transform="translate(499.46,496.3228)" id="g20"><path id="path22" style="fill:#337abe;fill-opacity:1;fill-rule:evenodd;stroke:none" d="m 0,0 -23.213,-19.767 c -9.308,-7.928 -23.282,-6.807 -31.211,2.502 l -8.804,10.339 c -7.927,9.309 -6.807,23.283 2.502,31.212 l 23.211,19.767 c 9.31,7.927 23.284,6.807 31.211,-2.502 L 2.502,31.211 C 10.43,21.902 9.31,7.928 0,0 m -57.152,35.561 c -9.31,-7.928 -23.285,-6.807 -31.212,2.502 l -10.102,11.862 c -7.927,9.309 -6.807,23.284 2.502,31.212 l 49.321,42.001 c 9.31,7.928 23.285,6.807 31.213,-2.502 L -5.329,108.773 C 2.599,99.465 1.479,85.49 -7.831,77.563 L -57.152,35.561 Z m -69.688,55.543 -10.101,11.862 c -7.927,9.309 -6.808,23.284 2.502,31.212 l 49.321,42 c 9.309,7.928 23.283,6.808 31.212,-2.501 l 10.101,-11.863 c 7.928,-9.309 6.808,-23.283 -2.502,-31.211 L -95.628,88.602 c -9.31,-7.927 -23.283,-6.808 -31.212,2.502 M 9.952,-68.582 c 49.276,88.941 30.815,203.168 -49.635,271.559 -80.473,68.411 -196.228,68.22 -276.078,5.211 -55.528,26.493 -98.21,33.521 -114.212,14.697 -17.157,-20.182 -0.037,-65.853 40.824,-121.443 2.868,9.269 6.38,18.396 10.531,27.317 -24.799,36.112 -34.633,63.993 -24.104,76.379 9.99,11.752 36.699,7.655 73.255,-8.734 -6.108,-5.703 -11.962,-11.802 -17.506,-18.323 -13.027,-15.324 -23.553,-31.931 -31.645,-49.322 30.388,-44.25 83.249,-100.862 148.704,-156.505 2.806,-2.386 5.61,-4.739 8.411,-7.079 5.988,5.139 11.42,10.778 14.024,18.166 6.558,18.617 -5.72,33.888 -16.802,47.502 -12.927,15.884 -24.725,32.658 -29.989,52.68 0,0 -1.667,6.338 -4.852,9.538 -3.186,3.201 -22.062,23.841 -30.7,27.575 -8.638,3.734 -17.191,6.411 -31.83,5.402 0,0 -27.61,1.488 -3.827,20.973 0,0 30.66,28.732 65.051,7.044 0,0 19.524,-13.316 50.209,-43.996 0,0 7.705,-14.096 23.885,-18.993 0,0 74.918,-11.843 90.302,-107.61 0,0 8.466,-48.392 -20.577,-96.01 20.035,-12.875 38.928,-23.776 56.088,-32.382 16.686,11.057 32.122,24.607 45.735,40.621 6.115,7.193 11.682,14.669 16.705,22.376 26.062,-37.319 36.602,-66.201 25.832,-78.872 -11.313,-13.306 -44.056,-6.299 -88.272,15.875 -7.497,-4.969 -15.248,-9.43 -23.201,-13.384 61.609,-31.519 109.585,-41.138 126.774,-20.917 16.034,18.86 2.138,59.98 -33.1,110.655 m -194.866,-112.492 c 34.8,-0.621 69.595,7.045 101.192,22.754 -15.524,7.942 -31.917,17.277 -48.899,27.874 l -52.293,-50.628 z m -138.564,53.076 c 14.912,13.82 29.8,27.67 44.765,41.429 12.678,11.653 25.349,23.267 37.917,35.025 -2.922,2.433 -5.847,4.886 -8.769,7.371 -58.297,49.557 -106.65,100.808 -139.584,145.615 -24.842,-80.276 -1.788,-171.115 65.671,-229.44"/></g><g transform="translate(106.9141,204.2178)" id="g24"><path id="path26" style="fill:#337abe;fill-opacity:1;fill-rule:nonzero;stroke:none" d="m 0,0 0,29.902 0.383,0 c 4.503,0.002 8.243,-0.305 11.132,-0.842 2.695,-0.5 4.496,-1.319 5.625,-2.166 1.06,-0.817 1.798,-1.768 2.424,-3.49 0.635,-1.781 1.091,-4.56 1.084,-8.231 C 20.65,12.011 20.174,9.575 19.447,7.792 18.703,6.004 17.783,4.822 16.475,3.807 13.601,1.58 8.668,-0.008 1.148,0 L 0,0 Z m 112.76,21.583 c 0.46,1.819 1.198,3.34 2.288,4.768 0.965,1.249 2.307,2.379 4.334,3.4 1.587,0.799 3.977,1.381 7.339,1.379 l 0.132,0 0.012,0.002 c 0.161,0.004 0.325,0.007 0.501,0.007 3.008,0 5.242,-0.493 6.849,-1.219 2.024,-0.924 3.399,-2 4.449,-3.274 1.193,-1.469 2.051,-3.073 2.639,-4.989 0.633,-2.084 0.94,-4.147 0.94,-6.26 0,-2.825 -0.344,-5.275 -0.962,-7.396 -0.596,-2.022 -1.447,-3.613 -2.583,-4.983 -1.033,-1.23 -2.328,-2.207 -4.244,-3.02 -1.74,-0.735 -4.19,-1.229 -7.428,-1.225 -3.562,-0.006 -6.057,0.62 -7.642,1.45 -2.059,1.071 -3.414,2.257 -4.392,3.588 -1.118,1.539 -1.845,3.14 -2.272,5.024 -0.516,2.286 -0.762,4.465 -0.762,6.562 0,1.965 0.255,4.016 0.8,6.181 M 30.26,-29.337 c 7.824,1.661 14.753,4.368 20.65,8.246 5.963,3.906 10.727,9.133 13.971,15.389 0.52,1.002 0.998,2.03 1.432,3.084 0.428,-1.025 0.897,-2.029 1.407,-3.014 3.21,-6.226 7.841,-11.555 13.639,-15.779 5.792,-4.234 12.626,-7.341 20.353,-9.41 7.727,-2.07 16.171,-3.071 25.314,-3.071 8.66,0 16.836,1.009 24.482,3.075 7.646,2.061 14.477,5.108 20.37,9.203 5.957,4.131 10.773,9.39 14.208,15.589 0.831,1.493 1.561,3.035 2.193,4.623 l 0,-30.367 46.065,0 0,31.212 26.796,-31.212 41.82,0 0,93.44 -6.5,0 -39.564,0 0,-31.286 -26.794,31.286 -41.823,0 0,-30.52 c -0.329,0.828 -0.685,1.652 -1.066,2.467 -2.782,5.973 -6.994,11.236 -12.384,15.673 -5.513,4.542 -12.279,8.024 -20.163,10.605 -8.114,2.648 -17.328,3.894 -27.64,3.896 -9.064,0 -17.484,-1.045 -25.221,-3.198 C 94.104,58.449 87.308,55.336 81.539,51.166 75.787,47.014 71.151,41.878 67.874,35.9 67.434,35.102 67.022,34.29 66.641,33.465 66.146,34.66 65.589,35.823 64.971,36.952 61.782,42.791 57.098,47.653 51.277,51.331 45.5,54.989 38.72,57.579 31.042,59.233 23.406,60.876 14.98,61.669 5.737,61.671 l -54.833,0 0,-93.44 53.915,0 c 9.242,0 17.719,0.793 25.441,2.432 m 361.408,-72.683 c -1.191,-1.101 -3.728,-2.205 -8.605,-2.209 -3.991,-0.01 -6.859,0.572 -8.5,1.296 -2.05,0.89 -3.204,1.848 -3.93,2.799 -0.921,1.223 -1.567,2.605 -1.955,4.413 -0.464,2.194 -0.702,4.48 -0.702,6.889 0,6.924 1.601,11.04 3.657,13.255 2.239,2.367 4.94,3.633 10.055,3.708 4.841,0 8.012,-0.978 9.971,-2.293 1.876,-1.358 2.6,-2.448 3.022,-5.157 l 0.69,-5.735 47.654,0 -1.016,7.375 c -1.57,12.096 -8.399,22.276 -19.144,28.814 -10.881,6.703 -25.16,9.64 -42.705,9.658 -8.217,0 -16.03,-1.064 -23.367,-3.235 -7.315,-2.163 -13.855,-5.305 -19.48,-9.463 -5.667,-4.176 -10.245,-9.374 -13.539,-15.412 -0.247,-0.451 -0.484,-0.904 -0.712,-1.362 l 0,27.349 -48.312,0 0,-93.44 6.607,0 41.705,0 0,26.907 c 0.102,-0.212 0.208,-0.423 0.315,-0.633 3.114,-6.15 7.709,-11.433 13.501,-15.66 5.808,-4.246 12.719,-7.392 20.586,-9.538 7.918,-2.16 16.657,-3.197 26.21,-3.2 7.703,0.003 14.925,0.816 21.638,2.494 6.688,1.668 12.689,4.118 17.912,7.423 5.206,3.287 9.587,7.397 12.953,12.24 3.431,4.92 5.634,10.566 6.58,16.649 l 1.169,7.49 -47.897,0 -0.984,-5.34 c -0.511,-2.603 -1.504,-4.356 -3.375,-6.08 m -49.357,163.689 -6.5,0 -27.918,0 0,-61.889 34.418,0 0,27.773 26.412,0 0,-59.324 47.529,0 0,59.326 31.014,-0.002 0,34.116 -104.955,0 z M 101.54,-94.397 l 1.486,3.947 1.548,-3.947 -3.034,0 z m -84.142,18.001 c -0.048,-0.045 0.054,-0.015 -0.311,-0.22 -1.467,-0.751 -3.988,-1.366 -7.649,-1.358 l -8.627,0 0,4.875 3.809,0 c 1.752,0 3.699,-0.084 5.829,-0.258 1.855,-0.151 3.508,-0.464 4.978,-0.908 1.01,-0.307 1.692,-0.66 2.172,-1.003 -0.023,-0.794 -0.174,-1.081 -0.201,-1.128 m 208.128,3.781 -27.234,31.285 -42.513,0 0,-64.019 -30.536,64.019 -44.085,0 -1.785,-3.737 -13.603,-28.521 c -0.202,4.647 -1.476,9.118 -3.838,13.049 -2.587,4.331 -6.379,7.935 -11.018,10.823 -9.649,5.95 -22.727,8.347 -39.454,8.386 l -60.556,0 0,-93.44 49.907,0 0,25.027 11.895,0 c 8.443,0.003 15.846,0.672 22.301,2.117 6.371,1.433 11.924,3.545 16.597,6.532 0.526,0.336 1.042,0.685 1.544,1.044 l -16.561,-34.72 49.344,0 4.014,10.614 25.825,0 4.164,-10.614 35.845,0 46.825,0 0,31.213 27.237,-31.213 42.51,0 0,93.44 -46.825,0 0,-31.285 z"/></g><path id="path28" style="fill:#fff215;fill-opacity:1;fill-rule:nonzero;stroke:none" d="m 442.728,259.387 -21.418,0 0,-48.887 21.418,0 0,48.887 z m -54.456,-183.439 35.096,0 0,80.438 -35.096,0 0,-80.438 z m 15.102,183.439 -33.064,0 0,-25.584 1.317,-18.323 -37.6,43.907 -32.332,0 0,-80.439 33.064,0 0,25.472 -1.317,18.322 37.599,-43.794 32.333,0 0,80.439 z M 503.039,97.398 c -2.902,-2.608 -7.257,-3.91 -13.061,-3.91 -4.583,0 -8.303,0.615 -11.154,1.844 -2.851,1.229 -5.04,2.849 -6.568,4.859 -1.527,2.011 -2.572,4.338 -3.132,6.983 -0.561,2.642 -0.841,5.38 -0.841,8.212 0,7.82 1.781,13.685 5.348,17.595 3.563,3.911 8.555,5.866 14.972,5.866 5.702,0 10.258,-1.137 13.671,-3.408 3.413,-2.273 5.372,-5.53 5.883,-9.775 l 34.219,0 c -1.427,10.352 -6.798,18.414 -16.116,24.187 -9.319,5.771 -22.381,8.659 -39.186,8.659 -7.637,0 -14.794,-0.989 -21.464,-2.961 -6.672,-1.975 -12.476,-4.786 -17.415,-8.435 -4.942,-3.65 -8.837,-8.083 -11.687,-13.295 -2.853,-5.214 -4.278,-11.06 -4.278,-17.54 0,-6.554 1.323,-12.439 3.972,-17.652 2.648,-5.214 6.493,-9.663 11.534,-13.35 5.042,-3.687 11.177,-6.518 18.41,-8.491 7.23,-1.973 15.376,-2.961 24.442,-2.961 7.23,0 13.902,0.765 20.013,2.291 6.111,1.526 11.431,3.723 15.964,6.591 4.531,2.866 8.223,6.349 11.077,10.446 2.849,4.095 4.683,8.751 5.499,13.965 l -34.679,0 c -0.714,-3.874 -2.521,-7.113 -5.423,-9.72 m -51.914,161.989 0,-21.116 31.016,0 0,-59.323 34.527,0 0,59.323 31.016,0 0,21.116 -96.559,0 z m -252.164,-156.068 10.856,28.825 11.302,-28.825 -22.158,0 z m -6.692,53.068 -38.368,-80.439 34.353,0 4.015,10.614 34.948,0 4.164,-10.614 34.947,0 -38.368,80.439 -35.691,0 z m 146.78,-25.584 1.338,-18.323 -38.219,43.907 -32.865,0 0,-80.439 33.608,0 0,25.472 -1.338,18.322 38.219,-43.794 32.865,0 0,80.439 -33.608,0 0,-25.584 z m -238.634,66.914 0,42.901 6.883,0 c 4.791,0 8.894,-0.318 12.312,-0.95 3.415,-0.634 6.195,-1.751 8.335,-3.352 2.142,-1.602 3.696,-3.781 4.665,-6.535 0.968,-2.757 1.453,-6.219 1.453,-10.39 0,-7.597 -2.244,-13.11 -6.729,-16.535 -4.488,-3.426 -10.912,-5.139 -19.271,-5.139 l -7.648,0 z m 35.407,-16.479 c 7.189,1.527 13.331,3.966 18.431,7.319 5.098,3.351 9.024,7.67 11.777,12.959 2.753,5.287 4.13,11.73 4.13,19.327 0,6.629 -1.327,12.363 -3.976,17.205 -2.654,4.841 -6.477,8.844 -11.472,12.01 -4.997,3.165 -11.039,5.511 -18.125,7.039 -7.088,1.525 -15.066,2.29 -23.937,2.29 l -48.332,0 0,-80.439 47.415,0 c 8.871,0 16.901,0.763 24.089,2.29 m 77.546,46.141 c 0.662,2.642 1.81,5.027 3.442,7.15 1.629,2.122 3.823,3.871 6.577,5.25 2.753,1.378 6.168,2.068 10.247,2.068 3.976,0.073 7.366,-0.523 10.172,-1.788 2.802,-1.267 5.07,-2.96 6.805,-5.083 1.733,-2.122 3.007,-4.525 3.825,-7.206 0.814,-2.681 1.223,-5.401 1.223,-8.156 0,-3.351 -0.409,-6.424 -1.223,-9.217 -0.818,-2.793 -2.092,-5.233 -3.825,-7.317 -1.735,-2.086 -3.976,-3.706 -6.729,-4.86 -2.753,-1.156 -6.069,-1.732 -9.943,-1.732 -4.282,0 -7.826,0.727 -10.629,2.179 -2.806,1.452 -5.024,3.296 -6.654,5.53 -1.632,2.235 -2.753,4.709 -3.364,7.429 -0.612,2.719 -0.918,5.381 -0.918,7.988 0,2.532 0.33,5.12 0.994,7.765 m -21.26,-39.325 c 5.047,-3.688 11.113,-6.481 18.202,-8.379 7.086,-1.9 14.962,-2.85 23.629,-2.85 8.158,0 15.754,0.95 22.79,2.85 7.037,1.898 13.154,4.653 18.354,8.266 5.201,3.613 9.278,8.081 12.236,13.407 2.956,5.324 4.436,11.413 4.436,18.266 0,5.287 -1.174,10.447 -3.518,15.474 -2.346,5.027 -5.888,9.496 -10.63,13.406 -4.742,3.91 -10.759,7.056 -18.048,9.441 -7.291,2.382 -15.83,3.575 -25.62,3.575 -8.564,0 -16.391,-0.989 -23.477,-2.961 -7.088,-1.975 -13.153,-4.786 -18.201,-8.435 -5.047,-3.65 -8.974,-8.026 -11.777,-13.128 -2.805,-5.101 -4.207,-10.819 -4.207,-17.148 0,-6.854 1.377,-12.942 4.13,-18.267 2.753,-5.325 6.654,-9.831 11.701,-13.517 M 127.004,121.81 c -2.748,-1.379 -6.297,-2.068 -10.65,-2.068 l -15.237,0 0,17.876 10.417,0 c 1.967,0 4.093,-0.095 6.374,-0.28 2.28,-0.187 4.405,-0.577 6.375,-1.173 1.967,-0.597 3.6,-1.452 4.897,-2.569 1.296,-1.117 1.943,-2.608 1.943,-4.469 0,-3.502 -1.375,-5.94 -4.119,-7.317 m 36.38,-4.302 c 1.812,3.5 2.721,7.41 2.721,11.73 0,8.268 -3.94,14.86 -11.816,19.775 -7.878,4.916 -19.85,7.374 -35.914,7.374 l -53.949,0 0,-80.439 36.691,0 0,25.026 18.502,0 c 8.084,0 15.027,0.651 20.833,1.955 5.804,1.301 10.623,3.183 14.459,5.641 3.833,2.458 6.658,5.437 8.473,8.938"/></g></g></g></svg>